<svg width="21" height="20" viewBox="0 0 21 20" fill="none" xmlns="http://www.w3.org/2000/svg">
<path d="M2.44893 9H5.29893C5.19893 8.36667 5.00726 7.775 4.72393 7.225C4.44059 6.675 4.08226 6.18333 3.64893 5.75C3.34893 6.23333 3.09476 6.74583 2.88643 7.2875C2.67809 7.82917 2.53226 8.4 2.44893 9ZM15.4989 9H18.3489C18.2656 8.4 18.1198 7.82917 17.9114 7.2875C17.7031 6.74583 17.4489 6.23333 17.1489 5.75C16.7156 6.18333 16.3573 6.675 16.0739 7.225C15.7906 7.775 15.5989 8.36667 15.4989 9ZM3.64893 14.25C4.08226 13.8167 4.44059 13.325 4.72393 12.775C5.00726 12.225 5.19893 11.6333 5.29893 11H2.44893C2.53226 11.6 2.67809 12.1708 2.88643 12.7125C3.09476 13.2542 3.34893 13.7667 3.64893 14.25ZM17.1489 14.25C17.4489 13.7667 17.7031 13.2542 17.9114 12.7125C18.1198 12.1708 18.2656 11.6 18.3489 11H15.4989C15.5989 11.6333 15.7906 12.225 16.0739 12.775C16.3573 13.325 16.7156 13.8167 17.1489 14.25ZM7.34893 9H9.39893V2.05C8.51559 2.18333 7.69476 2.42917 6.93643 2.7875C6.17809 3.14583 5.49893 3.61667 4.89893 4.2C5.54893 4.83333 6.08643 5.55417 6.51143 6.3625C6.93643 7.17083 7.21559 8.05 7.34893 9ZM11.3989 9H13.4489C13.5823 8.05 13.8614 7.17083 14.2864 6.3625C14.7114 5.55417 15.2489 4.83333 15.8989 4.2C15.2989 3.61667 14.6198 3.14583 13.8614 2.7875C13.1031 2.42917 12.2823 2.18333 11.3989 2.05V9ZM9.39893 17.95V11H7.34893C7.21559 11.95 6.93643 12.8292 6.51143 13.6375C6.08643 14.4458 5.54893 15.1667 4.89893 15.8C5.49893 16.3833 6.17809 16.8542 6.93643 17.2125C7.69476 17.5708 8.51559 17.8167 9.39893 17.95ZM11.3989 17.95C12.2823 17.8167 13.1031 17.5708 13.8614 17.2125C14.6198 16.8542 15.2989 16.3833 15.8989 15.8C15.2489 15.1667 14.7114 14.4458 14.2864 13.6375C13.8614 12.8292 13.5823 11.95 13.4489 11H11.3989V17.95ZM10.3989 20C9.01559 20 7.71559 19.7375 6.49893 19.2125C5.28226 18.6875 4.22393 17.975 3.32393 17.075C2.42393 16.175 1.71143 15.1167 1.18643 13.9C0.661426 12.6833 0.398926 11.3833 0.398926 10C0.398926 8.61667 0.661426 7.31667 1.18643 6.1C1.71143 4.88333 2.42393 3.825 3.32393 2.925C4.22393 2.025 5.28226 1.3125 6.49893 0.7875C7.71559 0.2625 9.01559 0 10.3989 0C11.7823 0 13.0823 0.2625 14.2989 0.7875C15.5156 1.3125 16.5739 2.025 17.4739 2.925C18.3739 3.825 19.0864 4.88333 19.6114 6.1C20.1364 7.31667 20.3989 8.61667 20.3989 10C20.3989 11.3833 20.1364 12.6833 19.6114 13.9C19.0864 15.1167 18.3739 16.175 17.4739 17.075C16.5739 17.975 15.5156 18.6875 14.2989 19.2125C13.0823 19.7375 11.7823 20 10.3989 20Z" fill="#3C493E"/>
</svg>
