<svg width="16" height="19" viewBox="0 0 16 19" fill="none" xmlns="http://www.w3.org/2000/svg">
<path d="M3 18.5C2.45 18.5 1.97917 18.3042 1.5875 17.9125C1.19583 17.5208 1 17.05 1 16.5V3.5C0.716667 3.5 0.479167 3.40417 0.2875 3.2125C0.0958333 3.02083 0 2.78333 0 2.5C0 2.21667 0.0958333 1.97917 0.2875 1.7875C0.479167 1.59583 0.716667 1.5 1 1.5H5C5 1.21667 5.09583 0.979167 5.2875 0.7875C5.47917 0.595833 5.71667 0.5 6 0.5H10C10.2833 0.5 10.5208 0.595833 10.7125 0.7875C10.9042 0.979167 11 1.21667 11 1.5H15C15.2833 1.5 15.5208 1.59583 15.7125 1.7875C15.9042 1.97917 16 2.21667 16 2.5C16 2.78333 15.9042 3.02083 15.7125 3.2125C15.5208 3.40417 15.2833 3.5 15 3.5V16.5C15 17.05 14.8042 17.5208 14.4125 17.9125C14.0208 18.3042 13.55 18.5 13 18.5H3ZM13 3.5H3V16.5H13V3.5ZM6 14.5C6.28333 14.5 6.52083 14.4042 6.7125 14.2125C6.90417 14.0208 7 13.7833 7 13.5V6.5C7 6.21667 6.90417 5.97917 6.7125 5.7875C6.52083 5.59583 6.28333 5.5 6 5.5C5.71667 5.5 5.47917 5.59583 5.2875 5.7875C5.09583 5.97917 5 6.21667 5 6.5V13.5C5 13.7833 5.09583 14.0208 5.2875 14.2125C5.47917 14.4042 5.71667 14.5 6 14.5ZM10 14.5C10.2833 14.5 10.5208 14.4042 10.7125 14.2125C10.9042 14.0208 11 13.7833 11 13.5V6.5C11 6.21667 10.9042 5.97917 10.7125 5.7875C10.5208 5.59583 10.2833 5.5 10 5.5C9.71667 5.5 9.47917 5.59583 9.2875 5.7875C9.09583 5.97917 9 6.21667 9 6.5V13.5C9 13.7833 9.09583 14.0208 9.2875 14.2125C9.47917 14.4042 9.71667 14.5 10 14.5Z" fill="#0D935E"/>
</svg>
