<svg width="266" height="344" viewBox="0 0 266 344" fill="none" xmlns="http://www.w3.org/2000/svg">
<path d="M133 226C121.933 226 111.533 223.9 101.8 219.7C92.0667 215.5 83.6 209.8 76.4 202.6C69.2 195.4 63.5 186.933 59.3 177.2C55.1 167.467 53 157.067 53 146C53 134.933 55.1 124.533 59.3 114.8C63.5 105.067 69.2 96.6 76.4 89.4C83.6 82.2 92.0667 76.5 101.8 72.3C111.533 68.1 121.933 66 133 66C144.067 66 154.467 68.1 164.2 72.3C173.933 76.5 182.4 82.2 189.6 89.4C196.8 96.6 202.5 105.067 206.7 114.8C210.9 124.533 213 134.933 213 146C213 157.067 210.9 167.467 206.7 177.2C202.5 186.933 196.8 195.4 189.6 202.6C182.4 209.8 173.933 215.5 164.2 219.7C154.467 223.9 144.067 226 133 226ZM125 209.4V201.4C120.333 200.733 115.833 199.467 111.5 197.6C107.167 195.733 103.133 193.467 99.4 190.8L93.8 196.6C98.2 200.067 103.033 202.9 108.3 205.1C113.567 207.3 119.133 208.733 125 209.4ZM141 209.4C146.867 208.733 152.433 207.3 157.7 205.1C162.967 202.9 167.8 200.067 172.2 196.6L166.6 190.8C162.867 193.467 158.833 195.733 154.5 197.6C150.167 199.467 145.667 200.733 141 201.4V209.4ZM133 186C144.067 186 153.5 182.1 161.3 174.3C169.1 166.5 173 157.067 173 146C173 134.933 169.1 125.5 161.3 117.7C153.5 109.9 144.067 106 133 106C121.933 106 112.5 109.9 104.7 117.7C96.9 125.5 93 134.933 93 146C93 157.067 96.9 166.5 104.7 174.3C112.5 182.1 121.933 186 133 186ZM183.6 185.2C187.067 180.8 189.9 175.967 192.1 170.7C194.3 165.433 195.733 159.867 196.4 154H188.4C187.733 158.667 186.467 163.167 184.6 167.5C182.733 171.833 180.467 175.867 177.8 179.6L183.6 185.2ZM82.4 185.2L88.2 179.4C85.5333 175.667 83.2667 171.667 81.4 167.4C79.5333 163.133 78.2667 158.667 77.6 154H69.6C70.2667 159.867 71.7 165.433 73.9 170.7C76.1 175.967 78.9333 180.8 82.4 185.2ZM129.8 173.8L112.6 150.8C111.533 149.333 111 147.733 111 146C111 144.267 111.533 142.667 112.6 141.2L129.8 118.2C130.6 117.133 131.667 116.6 133 116.6C134.333 116.6 135.4 117.133 136.2 118.2L153.4 141.2C154.467 142.667 155 144.267 155 146C155 147.733 154.467 149.333 153.4 150.8L136.2 173.8C135.4 174.867 134.333 175.4 133 175.4C131.667 175.4 130.6 174.867 129.8 173.8ZM69.6 138H77.6C78.2667 133.333 79.5333 128.867 81.4 124.6C83.2667 120.333 85.5333 116.333 88.2 112.6L82.4 106.8C78.9333 111.2 76.1 116.033 73.9 121.3C71.7 126.567 70.2667 132.133 69.6 138ZM188.4 138H196.4C195.733 132.133 194.267 126.567 192 121.3C189.733 116.033 186.867 111.2 183.4 106.8L177.8 112.4C180.467 116.133 182.733 120.167 184.6 124.5C186.467 128.833 187.733 133.333 188.4 138ZM99.6 101.2C103.333 98.5333 107.333 96.2667 111.6 94.4C115.867 92.5333 120.333 91.2667 125 90.6V82.6C119.133 83.2667 113.567 84.7 108.3 86.9C103.033 89.1 98.2 91.9333 93.8 95.4L99.6 101.2ZM166.6 101.2L172.2 95.6C167.8 92.1333 162.967 89.2667 157.7 87C152.433 84.7333 146.867 83.2667 141 82.6V90.6C145.667 91.2667 150.167 92.5333 154.5 94.4C158.833 96.2667 162.867 98.5333 166.6 101.2Z" fill="#0D935E"/>
<path d="M71.1151 269L62.7031 257.839H60.8111V269H55.2756V242.818H60.8111V253.276H61.9233L70.6165 242.818H77.5071L67.2926 254.963L77.9801 269H71.1151ZM80.6616 276.364V249.364H86.0309V252.662H86.2738C86.5124 252.134 86.8576 251.597 87.3093 251.051C87.7695 250.497 88.3661 250.037 89.0991 249.67C89.8406 249.295 90.761 249.108 91.8604 249.108C93.2923 249.108 94.6133 249.483 95.8235 250.233C97.0337 250.974 98.0011 252.095 98.7255 253.595C99.4499 255.087 99.8121 256.957 99.8121 259.207C99.8121 261.398 99.4585 263.247 98.7511 264.756C98.0522 266.256 97.0977 267.393 95.8874 268.169C94.6857 268.936 93.3391 269.32 91.8477 269.32C90.7908 269.32 89.8917 269.145 89.1502 268.795C88.4173 268.446 87.8164 268.007 87.3477 267.479C86.8789 266.942 86.521 266.401 86.2738 265.855H86.1076V276.364H80.6616ZM85.9925 259.182C85.9925 260.349 86.1545 261.368 86.4783 262.237C86.8022 263.107 87.271 263.784 87.8846 264.27C88.4982 264.747 89.244 264.986 90.1218 264.986C91.0082 264.986 91.7582 264.743 92.3718 264.257C92.9854 263.763 93.4499 263.081 93.7653 262.212C94.0891 261.334 94.2511 260.324 94.2511 259.182C94.2511 258.048 94.0934 257.051 93.7781 256.19C93.4627 255.33 92.9982 254.656 92.3846 254.17C91.771 253.685 91.0167 253.442 90.1218 253.442C89.2354 253.442 88.4854 253.676 87.8718 254.145C87.2667 254.614 86.8022 255.278 86.4783 256.139C86.1545 257 85.9925 258.014 85.9925 259.182ZM108.646 261.815L115.716 249.364H121.085V269H115.895V256.51L108.85 269H103.443V249.364H108.646V261.815ZM123.479 253.646V249.364H141.274V253.646H134.946V269H129.756V253.646H123.479ZM144.678 269V242.818H155.161C157.087 242.818 158.694 243.104 159.98 243.675C161.267 244.246 162.235 245.038 162.882 246.053C163.53 247.058 163.854 248.217 163.854 249.53C163.854 250.553 163.65 251.452 163.24 252.227C162.831 252.994 162.269 253.625 161.553 254.119C160.846 254.605 160.036 254.95 159.124 255.155V255.411C160.121 255.453 161.054 255.734 161.924 256.254C162.801 256.774 163.513 257.503 164.059 258.44C164.604 259.369 164.877 260.477 164.877 261.764C164.877 263.153 164.532 264.393 163.841 265.484C163.159 266.567 162.15 267.423 160.811 268.054C159.473 268.685 157.824 269 155.864 269H144.678ZM150.213 264.474H154.726C156.269 264.474 157.394 264.18 158.101 263.592C158.809 262.996 159.162 262.203 159.162 261.214C159.162 260.49 158.988 259.851 158.638 259.297C158.289 258.743 157.79 258.308 157.142 257.993C156.503 257.678 155.74 257.52 154.854 257.52H150.213V264.474ZM150.213 253.774H154.317C155.076 253.774 155.749 253.642 156.337 253.378C156.934 253.105 157.402 252.722 157.743 252.227C158.093 251.733 158.267 251.141 158.267 250.45C158.267 249.504 157.931 248.741 157.257 248.162C156.593 247.582 155.647 247.293 154.419 247.293H150.213V253.774ZM168.479 269V242.818H186.121V247.382H174.014V253.621H185.213V258.185H174.014V264.436H186.172V269H168.479ZM189.525 247.382V242.818H211.027V247.382H203.012V269H197.54V247.382H189.525Z" fill="#3C493E"/>
</svg>
