<svg width="129" height="32" viewBox="0 0 129 32" fill="none" xmlns="http://www.w3.org/2000/svg">
<path d="M16 32C13.7867 32 11.7067 31.58 9.76 30.74C7.81333 29.9 6.12 28.76 4.68 27.32C3.24 25.88 2.1 24.1867 1.26 22.24C0.42 20.2933 0 18.2133 0 16C0 13.7867 0.42 11.7067 1.26 9.76C2.1 7.81333 3.24 6.12 4.68 4.68C6.12 3.24 7.81333 2.1 9.76 1.26C11.7067 0.42 13.7867 0 16 0C18.2133 0 20.2933 0.42 22.24 1.26C24.1867 2.1 25.88 3.24 27.32 4.68C28.76 6.12 29.9 7.81333 30.74 9.76C31.58 11.7067 32 13.7867 32 16C32 18.2133 31.58 20.2933 30.74 22.24C29.9 24.1867 28.76 25.88 27.32 27.32C25.88 28.76 24.1867 29.9 22.24 30.74C20.2933 31.58 18.2133 32 16 32ZM14.4 28.68V27.08C13.4667 26.9467 12.5667 26.6933 11.7 26.32C10.8333 25.9467 10.0267 25.4933 9.28 24.96L8.16 26.12C9.04 26.8133 10.0067 27.38 11.06 27.82C12.1133 28.26 13.2267 28.5467 14.4 28.68ZM17.6 28.68C18.7733 28.5467 19.8867 28.26 20.94 27.82C21.9933 27.38 22.96 26.8133 23.84 26.12L22.72 24.96C21.9733 25.4933 21.1667 25.9467 20.3 26.32C19.4333 26.6933 18.5333 26.9467 17.6 27.08V28.68ZM16 24C18.2133 24 20.1 23.22 21.66 21.66C23.22 20.1 24 18.2133 24 16C24 13.7867 23.22 11.9 21.66 10.34C20.1 8.78 18.2133 8 16 8C13.7867 8 11.9 8.78 10.34 10.34C8.78 11.9 8 13.7867 8 16C8 18.2133 8.78 20.1 10.34 21.66C11.9 23.22 13.7867 24 16 24ZM26.12 23.84C26.8133 22.96 27.38 21.9933 27.82 20.94C28.26 19.8867 28.5467 18.7733 28.68 17.6H27.08C26.9467 18.5333 26.6933 19.4333 26.32 20.3C25.9467 21.1667 25.4933 21.9733 24.96 22.72L26.12 23.84ZM5.88 23.84L7.04 22.68C6.50667 21.9333 6.05333 21.1333 5.68 20.28C5.30667 19.4267 5.05333 18.5333 4.92 17.6H3.32C3.45333 18.7733 3.74 19.8867 4.18 20.94C4.62 21.9933 5.18667 22.96 5.88 23.84ZM15.36 21.56L11.92 16.96C11.7067 16.6667 11.6 16.3467 11.6 16C11.6 15.6533 11.7067 15.3333 11.92 15.04L15.36 10.44C15.52 10.2267 15.7333 10.12 16 10.12C16.2667 10.12 16.48 10.2267 16.64 10.44L20.08 15.04C20.2933 15.3333 20.4 15.6533 20.4 16C20.4 16.3467 20.2933 16.6667 20.08 16.96L16.64 21.56C16.48 21.7733 16.2667 21.88 16 21.88C15.7333 21.88 15.52 21.7733 15.36 21.56ZM3.32 14.4H4.92C5.05333 13.4667 5.30667 12.5733 5.68 11.72C6.05333 10.8667 6.50667 10.0667 7.04 9.32L5.88 8.16C5.18667 9.04 4.62 10.0067 4.18 11.06C3.74 12.1133 3.45333 13.2267 3.32 14.4ZM27.08 14.4H28.68C28.5467 13.2267 28.2533 12.1133 27.8 11.06C27.3467 10.0067 26.7733 9.04 26.08 8.16L24.96 9.28C25.4933 10.0267 25.9467 10.8333 26.32 11.7C26.6933 12.5667 26.9467 13.4667 27.08 14.4ZM9.32 7.04C10.0667 6.50667 10.8667 6.05333 11.72 5.68C12.5733 5.30667 13.4667 5.05333 14.4 4.92V3.32C13.2267 3.45333 12.1133 3.74 11.06 4.18C10.0067 4.62 9.04 5.18667 8.16 5.88L9.32 7.04ZM22.72 7.04L23.84 5.92C22.96 5.22667 21.9933 4.65333 20.94 4.2C19.8867 3.74667 18.7733 3.45333 17.6 3.32V4.92C18.5333 5.05333 19.4333 5.30667 20.3 5.68C21.1667 6.05333 21.9733 6.50667 22.72 7.04Z" fill="#0D935E"/>
<path d="M50.0639 23L45.3906 16.7997H44.3395V23H41.2642V8.45455H44.3395V14.2642H44.9574L49.7869 8.45455H53.6151L47.9403 15.2017L53.8778 23H50.0639ZM55.3675 27.0909V12.0909H58.3505V13.9233H58.4854C58.618 13.6297 58.8098 13.3314 59.0607 13.0284C59.3164 12.7206 59.6478 12.465 60.055 12.2614C60.467 12.053 60.9783 11.9489 61.5891 11.9489C62.3846 11.9489 63.1185 12.1572 63.7908 12.5739C64.4632 12.9858 65.0006 13.6084 65.4031 14.4418C65.8055 15.2704 66.0067 16.3097 66.0067 17.5597C66.0067 18.7765 65.8103 19.804 65.4173 20.642C65.029 21.4754 64.4987 22.1075 63.8263 22.5384C63.1587 22.9645 62.4106 23.1776 61.582 23.1776C60.9949 23.1776 60.4954 23.0805 60.0835 22.8864C59.6763 22.6922 59.3424 22.4484 59.082 22.1548C58.8216 21.8565 58.6228 21.5559 58.4854 21.2528H58.3931V27.0909H55.3675ZM58.3292 17.5455C58.3292 18.1941 58.4192 18.7599 58.5991 19.2429C58.779 19.7259 59.0394 20.1023 59.3803 20.3722C59.7212 20.6373 60.1355 20.7699 60.6232 20.7699C61.1156 20.7699 61.5323 20.6349 61.8732 20.3651C62.2141 20.0904 62.4722 19.7116 62.6474 19.2287C62.8273 18.741 62.9173 18.1799 62.9173 17.5455C62.9173 16.9157 62.8297 16.3617 62.6545 15.8835C62.4793 15.4053 62.2212 15.0312 61.8803 14.7614C61.5394 14.4915 61.1204 14.3565 60.6232 14.3565C60.1308 14.3565 59.7141 14.4867 59.3732 14.7472C59.0371 15.0076 58.779 15.3769 58.5991 15.8551C58.4192 16.3333 58.3292 16.8968 58.3292 17.5455ZM70.9144 19.0085L74.842 12.0909H77.8249V23H74.9414V16.0611L71.0281 23H68.0238V12.0909H70.9144V19.0085ZM79.1548 14.4702V12.0909H89.0412V14.4702H85.5256V23H82.642V14.4702H79.1548ZM90.9322 23V8.45455H96.756C97.8261 8.45455 98.7186 8.61316 99.4336 8.9304C100.149 9.24763 100.686 9.68797 101.046 10.2514C101.406 10.8101 101.586 11.4541 101.586 12.1832C101.586 12.7514 101.472 13.2509 101.245 13.6818C101.017 14.108 100.705 14.4583 100.307 14.733C99.9142 15.0028 99.4644 15.1946 98.9577 15.3082V15.4503C99.5117 15.474 100.03 15.6302 100.513 15.919C101.001 16.2079 101.396 16.6127 101.699 17.1335C102.002 17.6496 102.154 18.2652 102.154 18.9801C102.154 19.7519 101.962 20.4408 101.578 21.0469C101.2 21.6482 100.639 22.1241 99.8952 22.4744C99.1519 22.8248 98.2357 23 97.1467 23H90.9322ZM94.0075 20.4858H96.5146C97.3716 20.4858 97.9966 20.3224 98.3896 19.9957C98.7826 19.6643 98.979 19.224 98.979 18.6747C98.979 18.2723 98.882 17.9171 98.6879 17.6094C98.4937 17.3016 98.2167 17.0601 97.8569 16.8849C97.5018 16.7098 97.078 16.6222 96.5856 16.6222H94.0075V20.4858ZM94.0075 14.5412H96.2873C96.7087 14.5412 97.0827 14.4678 97.4094 14.321C97.7409 14.1695 98.0013 13.9564 98.1907 13.6818C98.3848 13.4072 98.4819 13.0781 98.4819 12.6946C98.4819 12.169 98.2949 11.7453 97.9208 11.4233C97.5515 11.1013 97.0259 10.9403 96.3441 10.9403H94.0075V14.5412ZM104.155 23V8.45455H113.956V10.9901H107.23V14.456H113.452V16.9915H107.23V20.4645H113.984V23H104.155ZM115.847 10.9901V8.45455H127.793V10.9901H123.34V23H120.3V10.9901H115.847Z" fill="#3C493E"/>
</svg>
