<svg width="18" height="18" viewBox="0 0 18 18" fill="none" xmlns="http://www.w3.org/2000/svg">
<rect width="17.3333" height="17.3333" rx="4" fill="#0D935E"/>
<path d="M8.66667 15.3333C7.74444 15.3333 6.87778 15.1583 6.06667 14.8083C5.25556 14.4583 4.55 13.9833 3.95 13.3833C3.35 12.7833 2.875 12.0778 2.525 11.2667C2.175 10.4556 2 9.58889 2 8.66667C2 7.74444 2.175 6.87778 2.525 6.06667C2.875 5.25556 3.35 4.55 3.95 3.95C4.55 3.35 5.25556 2.875 6.06667 2.525C6.87778 2.175 7.74444 2 8.66667 2C9.58889 2 10.4556 2.175 11.2667 2.525C12.0778 2.875 12.7833 3.35 13.3833 3.95C13.9833 4.55 14.4583 5.25556 14.8083 6.06667C15.1583 6.87778 15.3333 7.74444 15.3333 8.66667C15.3333 9.58889 15.1583 10.4556 14.8083 11.2667C14.4583 12.0778 13.9833 12.7833 13.3833 13.3833C12.7833 13.9833 12.0778 14.4583 11.2667 14.8083C10.4556 15.1583 9.58889 15.3333 8.66667 15.3333ZM8 13.95V13.2833C7.61111 13.2278 7.23611 13.1222 6.875 12.9667C6.51389 12.8111 6.17778 12.6222 5.86667 12.4L5.4 12.8833C5.76667 13.1722 6.16944 13.4083 6.60833 13.5917C7.04722 13.775 7.51111 13.8944 8 13.95ZM9.33333 13.95C9.82222 13.8944 10.2861 13.775 10.725 13.5917C11.1639 13.4083 11.5667 13.1722 11.9333 12.8833L11.4667 12.4C11.1556 12.6222 10.8194 12.8111 10.4583 12.9667C10.0972 13.1222 9.72222 13.2278 9.33333 13.2833V13.95ZM8.66667 12C9.58889 12 10.375 11.675 11.025 11.025C11.675 10.375 12 9.58889 12 8.66667C12 7.74444 11.675 6.95833 11.025 6.30833C10.375 5.65833 9.58889 5.33333 8.66667 5.33333C7.74444 5.33333 6.95833 5.65833 6.30833 6.30833C5.65833 6.95833 5.33333 7.74444 5.33333 8.66667C5.33333 9.58889 5.65833 10.375 6.30833 11.025C6.95833 11.675 7.74444 12 8.66667 12ZM12.8833 11.9333C13.1722 11.5667 13.4083 11.1639 13.5917 10.725C13.775 10.2861 13.8944 9.82222 13.95 9.33333H13.2833C13.2278 9.72222 13.1222 10.0972 12.9667 10.4583C12.8111 10.8194 12.6222 11.1556 12.4 11.4667L12.8833 11.9333ZM4.45 11.9333L4.93333 11.45C4.71111 11.1389 4.52222 10.8056 4.36667 10.45C4.21111 10.0944 4.10556 9.72222 4.05 9.33333H3.38333C3.43889 9.82222 3.55833 10.2861 3.74167 10.725C3.925 11.1639 4.16111 11.5667 4.45 11.9333ZM8.4 10.9833L6.96667 9.06667C6.87778 8.94444 6.83333 8.81111 6.83333 8.66667C6.83333 8.52222 6.87778 8.38889 6.96667 8.26667L8.4 6.35C8.46667 6.26111 8.55556 6.21667 8.66667 6.21667C8.77778 6.21667 8.86667 6.26111 8.93333 6.35L10.3667 8.26667C10.4556 8.38889 10.5 8.52222 10.5 8.66667C10.5 8.81111 10.4556 8.94444 10.3667 9.06667L8.93333 10.9833C8.86667 11.0722 8.77778 11.1167 8.66667 11.1167C8.55556 11.1167 8.46667 11.0722 8.4 10.9833ZM3.38333 8H4.05C4.10556 7.61111 4.21111 7.23889 4.36667 6.88333C4.52222 6.52778 4.71111 6.19444 4.93333 5.88333L4.45 5.4C4.16111 5.76667 3.925 6.16944 3.74167 6.60833C3.55833 7.04722 3.43889 7.51111 3.38333 8ZM13.2833 8H13.95C13.8944 7.51111 13.7722 7.04722 13.5833 6.60833C13.3944 6.16944 13.1556 5.76667 12.8667 5.4L12.4 5.86667C12.6222 6.17778 12.8111 6.51389 12.9667 6.875C13.1222 7.23611 13.2278 7.61111 13.2833 8ZM5.88333 4.93333C6.19444 4.71111 6.52778 4.52222 6.88333 4.36667C7.23889 4.21111 7.61111 4.10556 8 4.05V3.38333C7.51111 3.43889 7.04722 3.55833 6.60833 3.74167C6.16944 3.925 5.76667 4.16111 5.4 4.45L5.88333 4.93333ZM11.4667 4.93333L11.9333 4.46667C11.5667 4.17778 11.1639 3.93889 10.725 3.75C10.2861 3.56111 9.82222 3.43889 9.33333 3.38333V4.05C9.72222 4.10556 10.0972 4.21111 10.4583 4.36667C10.8194 4.52222 11.1556 4.71111 11.4667 4.93333Z" fill="#E7E2CF"/>
</svg>
